<svg version="1.1" xmlns="http://www.w3.org/2000/svg" xmlns:xlink="http://www.w3.org/1999/xlink" width="83" height="83"><defs><clipPath id="ycedwTtfdRBF"><path fill="none" stroke="none" d=" M 0 0 L 83 0 L 83 83 L 0 83 L 0 0 Z"/></clipPath></defs><g transform="scale(1,1)" clip-path="url(#ycedwTtfdRBF)"><g transform="translate(-70,-258)"><path fill="rgb(101,87,210)" stroke="none" paint-order="stroke fill markers" fill-rule="evenodd" d=" M 450 115 L 472 115 C 473.1045694996616 115 474 115.8954305003384 474 117 L 474 139 C 474 140.10456949966158 473.1045694996616 141 472 141 L 450 141 C 448.8954305003384 141 448 140.10456949966158 448 139 L 448 117 C 448 115.8954305003384 448.8954305003384 115 450 115 Z" fill-opacity="1"/><g transform="translate(448,115)"><path fill="none" stroke="rgb(255,255,255)" paint-order="fill stroke markers" d=" M 4.44 13.76 L 9.75 19.07 L 21.99 6.83" stroke-opacity="1" stroke-linecap="square" stroke-miterlimit="10" stroke-width="2.6"/><g transform="translate(-448,-115)"><text fill="rgb(0,0,0)" stroke="none" font-family="geogebra-sans-serif, sans-serif" font-size="32px" font-style="normal" font-weight="normal" text-decoration="normal" x="483" y="140" text-anchor="start" dominant-baseline="alphabetic" fill-opacity="1">Serif</text><g transform="scale(35,35)"><g transform="translate(2.2857142857142856,9.392142857142858) scale(2.5,2.5)"><g transform="translate(0,0)"><path fill="rgb(0,0,0)" stroke="none" paint-order="stroke fill markers" d=" M 0.254 -0.607 Q 0.269 -0.605 0.28350000000000003 -0.594 Q 0.298 -0.583 0.298 -0.56 Q 0.298 -0.535 0.278 -0.5125 Q 0.258 -0.49 0.227 -0.49 Q 0.20700000000000002 -0.49 0.195 -0.4995 Q 0.183 -0.509 0.18 -0.518 Q 0.177 -0.527 0.177 -0.536 Q 0.177 -0.547 0.183 -0.5660000000000001 Q 0.189 -0.585 0.20500000000000002 -0.611 Q 0.221 -0.637 0.244 -0.6585 Q 0.267 -0.68 0.307 -0.6955 Q 0.34700000000000003 -0.711 0.396 -0.711 Q 0.509 -0.711 0.583 -0.647 Q 0.657 -0.583 0.657 -0.459 Q 0.657 -0.44 0.6535 -0.40950000000000003 Q 0.65 -0.379 0.6385000000000001 -0.333 Q 0.627 -0.28700000000000003 0.61 -0.241 Q 0.593 -0.195 0.5635 -0.1475 Q 0.534 -0.1 0.496 -0.064 Q 0.458 -0.028 0.4015 -0.0055 Q 0.34500000000000003 0.017 0.279 0.017 Q 0.182 0.017 0.13 -0.022 Q 0.059000000000000004 -0.076 0.059000000000000004 -0.157 Q 0.059000000000000004 -0.17500000000000002 0.0625 -0.2005 Q 0.066 -0.226 0.088 -0.278 Q 0.11 -0.33 0.148 -0.364 Q 0.246 -0.455 0.376 -0.455 Q 0.482 -0.455 0.51 -0.352 Q 0.539 -0.458 0.539 -0.519 Q 0.539 -0.598 0.497 -0.636 Q 0.456 -0.672 0.391 -0.672 Q 0.306 -0.672 0.254 -0.607 M 0.28400000000000003 -0.026000000000000002 Q 0.33 -0.026000000000000002 0.3675 -0.049 Q 0.405 -0.07200000000000001 0.428 -0.106 Q 0.447 -0.134 0.4675 -0.194 Q 0.488 -0.254 0.488 -0.296 Q 0.488 -0.307 0.487 -0.3185 Q 0.486 -0.33 0.48 -0.34950000000000003 Q 0.47400000000000003 -0.369 0.464 -0.383 Q 0.454 -0.397 0.433 -0.40800000000000003 Q 0.41200000000000003 -0.419 0.383 -0.419 Q 0.295 -0.419 0.247 -0.35000000000000003 Q 0.224 -0.315 0.2025 -0.2305 Q 0.181 -0.146 0.181 -0.112 Q 0.181 -0.026000000000000002 0.28400000000000003 -0.026000000000000002 Z"/></g></g></g><path fill="rgb(255,255,255)" stroke="none" paint-order="stroke fill markers" fill-rule="evenodd" d=" M 37.5 109 L 166.5 109 C 168.43299662440776 109 170 110.56700337559222 170 112.5 L 170 140.5 C 170 142.43299662440776 168.43299662440776 144 166.5 144 L 37.5 144 C 35.56700337559222 144 34 142.43299662440776 34 140.5 L 34 112.5 C 34 110.56700337559222 35.56700337559222 109 37.5 109 Z" fill-opacity="1"/><path fill="none" stroke="rgb(179,179,179)" paint-order="fill stroke markers" d=" M 37.5 109 L 166.5 109 C 168.43299662440776 109 170 110.56700337559222 170 112.5 L 170 140.5 C 170 142.43299662440776 168.43299662440776 144 166.5 144 L 37.5 144 C 35.56700337559222 144 34 142.43299662440776 34 140.5 L 34 112.5 C 34 110.56700337559222 35.56700337559222 109 37.5 109 Z" stroke-opacity="1" stroke-linecap="round" stroke-linejoin="round" stroke-miterlimit="10"/><text fill="rgb(0,0,0)" stroke="none" font-family="geogebra-sans-serif, sans-serif" font-size="24px" font-style="normal" font-weight="normal" text-decoration="normal" x="44" y="136" text-anchor="start" dominant-baseline="alphabetic" fill-opacity="1">Show SVG</text><path fill="rgb(255,255,255)" stroke="none" paint-order="stroke fill markers" fill-rule="evenodd" d=" M 204.5 106 L 380.5 106 C 382.4329966244078 106 384 107.56700337559222 384 109.5 L 384 137.5 C 384 139.43299662440776 382.4329966244078 141 380.5 141 L 204.5 141 C 202.56700337559224 141 201 139.43299662440776 201 137.5 L 201 109.5 C 201 107.56700337559222 202.56700337559224 106 204.5 106 Z" fill-opacity="1"/><path fill="none" stroke="rgb(179,179,179)" paint-order="fill stroke markers" d=" M 204.5 106 L 380.5 106 C 382.4329966244078 106 384 107.56700337559222 384 109.5 L 384 137.5 C 384 139.43299662440776 382.4329966244078 141 380.5 141 L 204.5 141 C 202.56700337559224 141 201 139.43299662440776 201 137.5 L 201 109.5 C 201 107.56700337559222 202.56700337559224 106 204.5 106 Z" stroke-opacity="1" stroke-linecap="round" stroke-linejoin="round" stroke-miterlimit="10"/><text fill="rgb(0,0,0)" stroke="none" font-family="geogebra-sans-serif, sans-serif" font-size="24px" font-style="normal" font-weight="normal" text-decoration="normal" x="211" y="133" text-anchor="start" dominant-baseline="alphabetic" fill-opacity="1">Download SVG</text><path fill="rgb(255,255,255)" stroke="none" paint-order="stroke fill markers" fill-rule="evenodd" d=" M 212 30 L 722 30 C 724.2091389993232 30 726 31.790861000676827 726 34 L 726 75 C 726 77.20913899932317 724.2091389993232 79 722 79 L 212 79 C 209.7908610006768 79 208 77.20913899932317 208 75 L 208 34 C 208 31.790861000676827 209.7908610006768 30 212 30 Z" fill-opacity="1"/><path fill="none" stroke="rgb(148,148,148)" paint-order="fill stroke markers" d=" M 212 30 L 722 30 C 724.2091389993232 30 726 31.790861000676827 726 34 L 726 75 C 726 77.20913899932317 724.2091389993232 79 722 79 L 212 79 C 209.7908610006768 79 208 77.20913899932317 208 75 L 208 34 C 208 31.790861000676827 209.7908610006768 30 212 30 Z" stroke-opacity="1" stroke-linecap="round" stroke-linejoin="round" stroke-miterlimit="10"/><text fill="rgb(0,0,0)" stroke="none" font-family="geogebra-sans-serif, sans-serif" font-size="32px" font-style="normal" font-weight="normal" text-decoration="normal" x="210" y="66" text-anchor="start" dominant-baseline="alphabetic" fill-opacity="1">\Huge\boldsymbol\partial</text><text fill="rgb(0,0,0)" stroke="none" font-family="geogebra-sans-serif, sans-serif" font-size="32px" font-style="normal" font-weight="normal" text-decoration="normal" x="30" y="66" text-anchor="start" dominant-baseline="alphabetic" fill-opacity="1">Enter LaTeX</text></g></g></g></g></svg>